<svg version="1.2" xmlns="http://www.w3.org/2000/svg" viewBox="0 0 1080 1080" width="1080" height="1080">
	<title>New Project</title>
	<style>
		.s0 { fill: #000000 } 
		.s1 { fill: #530c6e } 
	</style>
	<path id="Art;facte" class="s0" aria-label="Art;facte"  d="m297.4 545.6l-20.1-54.4-20.1 54.4zm-70.2 40.4l41.7-109.4h16.8l41.7 109.4h-15.4l-10-28.1h-49.3l-9.9 28.1zm163-83.3l0.1 13.9q-2.3-1.4-5-1.9-2.6-0.7-5.9-0.7-11.4 0-17.5 7.5-6.1 7.4-6.1 21.3v43.2h-13.6v-82h13.6v12.7q4.2-7.5 11-11 6.8-3.7 16.6-3.7 1.4 0 3.1 0.2 1.6 0.2 3.7 0.5zm14-22h13.5v23.3h27.8v10.4h-27.8v44.6q0 10 2.7 12.9 2.8 2.8 11.3 2.8h13.8v11.3h-13.8q-15.6 0-21.6-5.8-5.9-5.8-5.9-21.2v-44.6h-9.9v-10.4h9.9zm147.8-8.7h12.7v11.2h-12.9q-7.2 0-10.1 3-2.7 2.9-2.7 10.5v7.3h22.1v10.4h-22.1v71.6h-13.6v-71.6h-12.9v-10.4h12.9v-5.8q0-13.6 6.4-19.9 6.3-6.3 20.2-6.3zm74.7 72.8h-13.4q-16.3 0-22.6 3.7-6.3 3.7-6.3 12.7 0 7.2 4.7 11.5 4.7 4.1 12.8 4.1 11.2 0 18-7.9 6.8-8 6.8-21.1zm13.5-5.6v46.8h-13.5v-12.5q-4.6 7.5-11.5 11.1-6.9 3.5-16.8 3.5-12.6 0-20.1-7-7.4-7.1-7.4-19 0-13.8 9.2-20.9 9.3-7 27.7-7h18.9v-1.3q0-9.3-6.2-14.4-6-5.1-17.1-5.1-7 0-13.7 1.7-6.7 1.7-12.8 5v-12.4q7.4-2.9 14.3-4.3 7-1.4 13.6-1.4 17.8 0 26.6 9.2 8.8 9.2 8.8 28zm86.8-32.1v12.6q-5.7-3.1-11.5-4.7-5.7-1.6-11.6-1.6-13.1 0-20.4 8.4-7.2 8.2-7.2 23.3 0 15 7.2 23.3 7.3 8.3 20.4 8.3 5.9 0 11.6-1.5 5.8-1.7 11.5-4.8v12.4q-5.7 2.7-11.8 4-6 1.3-12.8 1.3-18.5 0-29.4-11.6-10.9-11.7-10.9-31.4 0-20.1 11-31.6 11-11.5 30.2-11.5 6.2 0 12.2 1.3 5.9 1.2 11.5 3.8zm23.2-26.4h13.5v23.3h27.8v10.4h-27.8v44.6q0 10 2.7 12.9 2.8 2.8 11.3 2.8h13.8v11.3h-13.8q-15.6 0-21.6-5.8-5.9-5.9-5.9-21.2v-44.6h-9.9v-10.4h9.9zm129.2 60.9v6.6h-62q0.9 13.9 8.4 21.2 7.5 7.3 20.9 7.3 7.8 0 15-1.9 7.4-1.9 14.5-5.7v12.7q-7.2 3.1-14.8 4.7-7.7 1.6-15.5 1.6-19.6 0-31.1-11.4-11.4-11.4-11.4-30.9 0-20.2 10.8-32 10.9-11.8 29.4-11.8 16.5 0 26.1 10.7 9.7 10.6 9.7 28.9zm-61.5-3.9l48-0.1q-0.1-11-6.2-17.6-6-6.6-16-6.6-11.3 0-18.1 6.4-6.7 6.3-7.7 17.9z"/>
	<path id="Art;facte" class="s1" aria-label="Art;facte"  d="m465.9 580v-22.3h26.4v22.3l-18.2 27.3h-15.6zm0-47.7v-28.3h26.5v28.3z"/>
</svg>